<?xml version="1.0" encoding="UTF-8" standalone="no"?>
<!DOCTYPE svg PUBLIC "-//W3C//DTD SVG 1.1//EN"
 "http://www.w3.org/Graphics/SVG/1.1/DTD/svg11.dtd">
<!-- Generated by graphviz version 2.43.0 (0)
 -->
<!-- Title: %3 Pages: 1 -->
<svg width="679pt" height="746pt"
 viewBox="0.00 0.00 678.68 746.00" xmlns="http://www.w3.org/2000/svg" xmlns:xlink="http://www.w3.org/1999/xlink">
<g id="graph0" class="graph" transform="scale(1 1) rotate(0) translate(4 742)">
<title>%3</title>
<polygon fill="white" stroke="transparent" points="-4,4 -4,-742 674.68,-742 674.68,4 -4,4"/>
<!-- CONTRATO -->
<g id="node1" class="node">
<title>CONTRATO</title>
<polygon fill="white" stroke="black" points="291.55,-441 226.55,-441 226.55,-405 291.55,-405 291.55,-441"/>
<text text-anchor="middle" x="259.05" y="-420.5" font-family="Courier,monospace" font-size="10.00">CONTRATO</text>
</g>
<!-- TEM_ADJUDICANTE -->
<g id="node25" class="node">
<title>TEM_ADJUDICANTE</title>
<polygon fill="white" stroke="black" points="433.62,-684 344.46,-666 433.62,-648 522.77,-666 433.62,-684"/>
<text text-anchor="middle" x="433.62" y="-663.5" font-family="Courier,monospace" font-size="10.00">TEM_ADJUDICANTE</text>
</g>
<!-- CONTRATO&#45;&#45;TEM_ADJUDICANTE -->
<g id="edge20" class="edge">
<title>CONTRATO&#45;&#45;TEM_ADJUDICANTE</title>
<path fill="none" stroke="black" d="M262.83,-440.94C265.63,-482.15 278.39,-584.19 335.92,-637.54 346.37,-647.5 360.96,-653.94 375.24,-657.84"/>
<path fill="none" stroke="transparent" d="M260.84,-441.07C263.64,-482.4 276.41,-584.44 334.55,-639 345.56,-649.33 360.15,-655.77 374.71,-659.77"/>
<path fill="none" stroke="black" d="M258.84,-441.21C261.66,-482.65 274.43,-584.69 333.18,-640.46 344.75,-651.16 359.35,-657.6 374.18,-661.7"/>
<text text-anchor="middle" x="313.05" y="-619" font-family="Courier,monospace" font-size="10.00">1</text>
</g>
<!-- USA_CPV -->
<g id="node26" class="node">
<title>USA_CPV</title>
<polygon fill="white" stroke="black" points="433.62,-576 384.38,-558 433.62,-540 482.85,-558 433.62,-576"/>
<text text-anchor="middle" x="433.62" y="-555.5" font-family="Courier,monospace" font-size="10.00">USA_CPV</text>
</g>
<!-- CONTRATO&#45;&#45;USA_CPV -->
<g id="edge22" class="edge">
<title>CONTRATO&#45;&#45;USA_CPV</title>
<path fill="none" stroke="black" d="M269.57,-440.41C280.67,-464.49 303.63,-506.82 335.71,-529.37 352.81,-541.66 376.14,-548.38 395.41,-551.93"/>
<path fill="none" stroke="transparent" d="M267.75,-441.25C278.91,-465.44 301.87,-507.78 334.55,-531 352.26,-543.58 375.59,-550.31 395.05,-553.9"/>
<path fill="none" stroke="black" d="M265.94,-442.08C277.15,-466.39 300.11,-508.73 333.39,-532.63 351.7,-545.5 375.03,-552.23 394.69,-555.86"/>
<text text-anchor="middle" x="313.05" y="-517" font-family="Courier,monospace" font-size="10.00">N</text>
</g>
<!-- TEM_ADJUDICATARIO -->
<g id="node27" class="node">
<title>TEM_ADJUDICATARIO</title>
<polygon fill="white" stroke="black" points="433.62,-306 334.48,-288 433.62,-270 532.75,-288 433.62,-306"/>
<text text-anchor="middle" x="433.62" y="-285.5" font-family="Courier,monospace" font-size="10.00">TEM_ADJUDICATARIO</text>
</g>
<!-- CONTRATO&#45;&#45;TEM_ADJUDICATARIO -->
<g id="edge24" class="edge">
<title>CONTRATO&#45;&#45;TEM_ADJUDICATARIO</title>
<path fill="none" stroke="black" d="M287.56,-403.39C297.46,-395.95 308.01,-386.38 314.88,-375.9 330.99,-354.51 312.72,-336.58 333.15,-313.58 343.68,-303.34 356.93,-297 370.73,-292.83"/>
<path fill="none" stroke="transparent" d="M288.76,-404.99C298.8,-397.43 309.36,-387.86 316.55,-377 332.39,-353.08 314.12,-335.15 334.55,-315 344.55,-305.14 357.79,-298.8 371.3,-294.75"/>
<path fill="none" stroke="black" d="M289.96,-406.58C300.15,-398.91 310.7,-389.34 318.22,-378.1 333.8,-351.65 315.52,-333.72 335.95,-316.42 345.41,-306.95 358.65,-300.61 371.88,-296.66"/>
<text text-anchor="middle" x="313.05" y="-387" font-family="Courier,monospace" font-size="10.00">M</text>
</g>
<!-- LOCAL_DE_EXECUCAO -->
<g id="node28" class="node">
<title>LOCAL_DE_EXECUCAO</title>
<polygon fill="white" stroke="black" points="433.62,-252 334.48,-234 433.62,-216 532.75,-234 433.62,-252"/>
<text text-anchor="middle" x="433.62" y="-231.5" font-family="Courier,monospace" font-size="10.00">LOCAL_DE_EXECUCAO</text>
</g>
<!-- CONTRATO&#45;&#45;LOCAL_DE_EXECUCAO -->
<g id="edge26" class="edge">
<title>CONTRATO&#45;&#45;LOCAL_DE_EXECUCAO</title>
<path fill="none" stroke="black" d="M261.24,-404.51C268.06,-370.85 287.32,-298.96 333.25,-259.48 344.99,-249.62 359.33,-243.43 373.81,-239.33"/>
<path fill="none" stroke="transparent" d="M263.2,-404.9C269.99,-371.37 289.25,-299.48 334.55,-261 345.79,-251.45 360.13,-245.26 374.35,-241.25"/>
<path fill="none" stroke="black" d="M265.16,-405.3C271.93,-371.88 291.18,-300 335.84,-262.52 346.58,-253.29 360.92,-247.1 374.89,-243.18"/>
<text text-anchor="middle" x="313.05" y="-288" font-family="Courier,monospace" font-size="10.00">M</text>
</g>
<!-- CONTRATO_idcontrato -->
<g id="node2" class="node">
<title>CONTRATO_idcontrato</title>
<ellipse fill="white" stroke="black" cx="94.77" cy="-639" rx="45.15" ry="18"/>
<text text-anchor="middle" x="94.77" y="-636.5" font-family="Courier,monospace" font-size="10.00">idcontrato</text>
</g>
<!-- CONTRATO_idcontrato&#45;&#45;CONTRATO -->
<g id="edge1" class="edge">
<title>CONTRATO_idcontrato&#45;&#45;CONTRATO</title>
<path fill="none" stroke="black" d="M139.2,-635.09C156.71,-631.5 175.94,-624.73 189.55,-612 239.78,-565.05 253.27,-478.44 256.81,-441.01"/>
</g>
<!-- CONTRATO_dataPublicacao -->
<g id="node3" class="node">
<title>CONTRATO_dataPublicacao</title>
<ellipse fill="white" stroke="black" cx="94.77" cy="-585" rx="59.41" ry="18"/>
<text text-anchor="middle" x="94.77" y="-582.5" font-family="Courier,monospace" font-size="10.00">dataPublicacao</text>
</g>
<!-- CONTRATO_dataPublicacao&#45;&#45;CONTRATO -->
<g id="edge2" class="edge">
<title>CONTRATO_dataPublicacao&#45;&#45;CONTRATO</title>
<path fill="none" stroke="black" d="M149.08,-577.65C163.39,-573.66 178.06,-567.5 189.55,-558 227.02,-527.02 246.11,-470.31 253.81,-441.24"/>
</g>
<!-- CONTRATO_dataCelebracaoContrato -->
<g id="node4" class="node">
<title>CONTRATO_dataCelebracaoContrato</title>
<ellipse fill="white" stroke="black" cx="94.77" cy="-531" rx="87.92" ry="18"/>
<text text-anchor="middle" x="94.77" y="-528.5" font-family="Courier,monospace" font-size="10.00">dataCelebracaoContrato</text>
</g>
<!-- CONTRATO_dataCelebracaoContrato&#45;&#45;CONTRATO -->
<g id="edge3" class="edge">
<title>CONTRATO_dataCelebracaoContrato&#45;&#45;CONTRATO</title>
<path fill="none" stroke="black" d="M158.55,-518.5C169.38,-514.82 180.16,-510.08 189.55,-504 214.59,-487.79 235.37,-459.66 247.25,-441.18"/>
</g>
<!-- CONTRATO_precoContratual -->
<g id="node5" class="node">
<title>CONTRATO_precoContratual</title>
<ellipse fill="white" stroke="black" cx="94.77" cy="-477" rx="62.97" ry="18"/>
<text text-anchor="middle" x="94.77" y="-474.5" font-family="Courier,monospace" font-size="10.00">precoContratual</text>
</g>
<!-- CONTRATO_precoContratual&#45;&#45;CONTRATO -->
<g id="edge4" class="edge">
<title>CONTRATO_precoContratual&#45;&#45;CONTRATO</title>
<path fill="none" stroke="black" d="M141.36,-464.82C156.76,-460.45 173.99,-455.29 189.55,-450 201.65,-445.88 214.75,-440.86 226.22,-436.27"/>
</g>
<!-- CONTRATO_prazoExecucao -->
<g id="node6" class="node">
<title>CONTRATO_prazoExecucao</title>
<ellipse fill="white" stroke="black" cx="94.77" cy="-423" rx="55.85" ry="18"/>
<text text-anchor="middle" x="94.77" y="-420.5" font-family="Courier,monospace" font-size="10.00">prazoExecucao</text>
</g>
<!-- CONTRATO_prazoExecucao&#45;&#45;CONTRATO -->
<g id="edge5" class="edge">
<title>CONTRATO_prazoExecucao&#45;&#45;CONTRATO</title>
<path fill="none" stroke="black" d="M150.71,-423C175.91,-423 204.88,-423 226.36,-423"/>
</g>
<!-- CONTRATO_objectoContrato -->
<g id="node7" class="node">
<title>CONTRATO_objectoContrato</title>
<ellipse fill="white" stroke="black" cx="94.77" cy="-369" rx="62.97" ry="18"/>
<text text-anchor="middle" x="94.77" y="-366.5" font-family="Courier,monospace" font-size="10.00">objectoContrato</text>
</g>
<!-- CONTRATO_objectoContrato&#45;&#45;CONTRATO -->
<g id="edge6" class="edge">
<title>CONTRATO_objectoContrato&#45;&#45;CONTRATO</title>
<path fill="none" stroke="black" d="M141.36,-381.18C156.76,-385.55 173.99,-390.71 189.55,-396 201.65,-400.12 214.75,-405.14 226.22,-409.73"/>
</g>
<!-- CONTRATO_fundamentacao -->
<g id="node8" class="node">
<title>CONTRATO_fundamentacao</title>
<ellipse fill="white" stroke="black" cx="94.77" cy="-315" rx="55.85" ry="18"/>
<text text-anchor="middle" x="94.77" y="-312.5" font-family="Courier,monospace" font-size="10.00">fundamentacao</text>
</g>
<!-- CONTRATO_fundamentacao&#45;&#45;CONTRATO -->
<g id="edge7" class="edge">
<title>CONTRATO_fundamentacao&#45;&#45;CONTRATO</title>
<path fill="none" stroke="black" d="M144.84,-323.35C159.99,-327.41 176.18,-333.34 189.55,-342 214.59,-358.21 235.37,-386.34 247.25,-404.82"/>
</g>
<!-- CONTRATO_ProcedimentoCentralizado -->
<g id="node9" class="node">
<title>CONTRATO_ProcedimentoCentralizado</title>
<ellipse fill="white" stroke="black" cx="94.77" cy="-261" rx="94.55" ry="18"/>
<text text-anchor="middle" x="94.77" y="-258.5" font-family="Courier,monospace" font-size="10.00">ProcedimentoCentralizado</text>
</g>
<!-- CONTRATO_ProcedimentoCentralizado&#45;&#45;CONTRATO -->
<g id="edge8" class="edge">
<title>CONTRATO_ProcedimentoCentralizado&#45;&#45;CONTRATO</title>
<path fill="none" stroke="black" d="M164.18,-273.43C173.33,-277.1 182.11,-281.85 189.55,-288 227.02,-318.98 246.11,-375.69 253.81,-404.76"/>
</g>
<!-- CONTRATO_DescrAcordoQuadro -->
<g id="node10" class="node">
<title>CONTRATO_DescrAcordoQuadro</title>
<ellipse fill="white" stroke="black" cx="94.77" cy="-207" rx="77.23" ry="18"/>
<text text-anchor="middle" x="94.77" y="-204.5" font-family="Courier,monospace" font-size="10.00">DescrAcordoQuadro ?</text>
</g>
<!-- CONTRATO_DescrAcordoQuadro&#45;&#45;CONTRATO -->
<g id="edge9" class="edge">
<title>CONTRATO_DescrAcordoQuadro&#45;&#45;CONTRATO</title>
<path fill="none" stroke="black" d="M160.08,-216.74C170.88,-220.71 181.26,-226.25 189.55,-234 239.78,-280.95 253.27,-367.56 256.81,-404.99"/>
</g>
<!-- CPV -->
<g id="node11" class="node">
<title>CPV</title>
<polygon fill="white" stroke="black" points="650.18,-522 596.18,-522 596.18,-486 650.18,-486 650.18,-522"/>
<text text-anchor="middle" x="623.18" y="-501.5" font-family="Courier,monospace" font-size="10.00">CPV</text>
</g>
<!-- CPV_cpv -->
<g id="node12" class="node">
<title>CPV_cpv</title>
<ellipse fill="white" stroke="black" cx="433.62" cy="-504" rx="27" ry="18"/>
<text text-anchor="middle" x="433.62" y="-501.5" font-family="Courier,monospace" font-size="10.00">cpv</text>
</g>
<!-- CPV_cpv&#45;&#45;CPV -->
<g id="edge10" class="edge">
<title>CPV_cpv&#45;&#45;CPV</title>
<path fill="none" stroke="black" d="M460.7,-504C496.43,-504 560.25,-504 596.02,-504"/>
</g>
<!-- CPV_descrCPV -->
<g id="node13" class="node">
<title>CPV_descrCPV</title>
<ellipse fill="white" stroke="black" cx="433.62" cy="-450" rx="38.03" ry="18"/>
<text text-anchor="middle" x="433.62" y="-447.5" font-family="Courier,monospace" font-size="10.00">descrCPV</text>
</g>
<!-- CPV_descrCPV&#45;&#45;CPV -->
<g id="edge11" class="edge">
<title>CPV_descrCPV&#45;&#45;CPV</title>
<path fill="none" stroke="black" d="M467.36,-458.8C486.45,-463.99 510.97,-470.74 532.68,-477 554.05,-483.16 578.18,-490.46 595.99,-495.92"/>
</g>
<!-- ADJUDICANTE -->
<g id="node14" class="node">
<title>ADJUDICANTE</title>
<polygon fill="white" stroke="black" points="664.68,-684 581.68,-684 581.68,-648 664.68,-648 664.68,-684"/>
<text text-anchor="middle" x="623.18" y="-663.5" font-family="Courier,monospace" font-size="10.00">ADJUDICANTE</text>
</g>
<!-- ADJUDICANTE_idAdjudicante -->
<g id="node15" class="node">
<title>ADJUDICANTE_idAdjudicante</title>
<ellipse fill="white" stroke="black" cx="433.62" cy="-612" rx="55.85" ry="18"/>
<text text-anchor="middle" x="433.62" y="-609.5" font-family="Courier,monospace" font-size="10.00">idAdjudicante</text>
</g>
<!-- ADJUDICANTE_idAdjudicante&#45;&#45;ADJUDICANTE -->
<g id="edge12" class="edge">
<title>ADJUDICANTE_idAdjudicante&#45;&#45;ADJUDICANTE</title>
<path fill="none" stroke="black" d="M477.16,-623.47C494.42,-628.19 514.53,-633.76 532.68,-639 548.59,-643.59 566.03,-648.81 581.25,-653.42"/>
</g>
<!-- ADJUDICANTE_nomeAdjudicante -->
<g id="node16" class="node">
<title>ADJUDICANTE_nomeAdjudicante</title>
<ellipse fill="white" stroke="black" cx="433.62" cy="-720" rx="62.97" ry="18"/>
<text text-anchor="middle" x="433.62" y="-717.5" font-family="Courier,monospace" font-size="10.00">nomeAdjudicante</text>
</g>
<!-- ADJUDICANTE_nomeAdjudicante&#45;&#45;ADJUDICANTE -->
<g id="edge13" class="edge">
<title>ADJUDICANTE_nomeAdjudicante&#45;&#45;ADJUDICANTE</title>
<path fill="none" stroke="black" d="M480.09,-707.73C496.67,-703.19 515.55,-697.94 532.68,-693 548.59,-688.41 566.03,-683.19 581.25,-678.58"/>
</g>
<!-- ADJUDICATARIO -->
<g id="node17" class="node">
<title>ADJUDICATARIO</title>
<polygon fill="white" stroke="black" points="670.68,-360 575.68,-360 575.68,-324 670.68,-324 670.68,-360"/>
<text text-anchor="middle" x="623.18" y="-339.5" font-family="Courier,monospace" font-size="10.00">ADJUDICATARIO</text>
</g>
<!-- ADJUDICATARIO_idAdjudicatario -->
<g id="node18" class="node">
<title>ADJUDICATARIO_idAdjudicatario</title>
<ellipse fill="white" stroke="black" cx="433.62" cy="-396" rx="62.97" ry="18"/>
<text text-anchor="middle" x="433.62" y="-393.5" font-family="Courier,monospace" font-size="10.00">idAdjudicatario</text>
</g>
<!-- ADJUDICATARIO_idAdjudicatario&#45;&#45;ADJUDICATARIO -->
<g id="edge14" class="edge">
<title>ADJUDICATARIO_idAdjudicatario&#45;&#45;ADJUDICATARIO</title>
<path fill="none" stroke="black" d="M480.09,-383.73C496.67,-379.19 515.55,-373.94 532.68,-369 546.56,-365 561.61,-360.51 575.33,-356.37"/>
</g>
<!-- ADJUDICATARIO_nomeAdjudicatario -->
<g id="node19" class="node">
<title>ADJUDICATARIO_nomeAdjudicatario</title>
<ellipse fill="white" stroke="black" cx="433.62" cy="-342" rx="70.1" ry="18"/>
<text text-anchor="middle" x="433.62" y="-339.5" font-family="Courier,monospace" font-size="10.00">nomeAdjudicatario</text>
</g>
<!-- ADJUDICATARIO_nomeAdjudicatario&#45;&#45;ADJUDICATARIO -->
<g id="edge15" class="edge">
<title>ADJUDICATARIO_nomeAdjudicatario&#45;&#45;ADJUDICATARIO</title>
<path fill="none" stroke="black" d="M503.93,-342C527.82,-342 554,-342 575.64,-342"/>
</g>
<!-- LOCALIZACAO -->
<g id="node20" class="node">
<title>LOCALIZACAO</title>
<polygon fill="white" stroke="black" points="664.68,-144 581.68,-144 581.68,-108 664.68,-108 664.68,-144"/>
<text text-anchor="middle" x="623.18" y="-123.5" font-family="Courier,monospace" font-size="10.00">LOCALIZACAO</text>
</g>
<!-- LOCALIZACAO_idLocal -->
<g id="node21" class="node">
<title>LOCALIZACAO_idLocal</title>
<ellipse fill="white" stroke="black" cx="433.62" cy="-180" rx="34.96" ry="18"/>
<text text-anchor="middle" x="433.62" y="-177.5" font-family="Courier,monospace" font-size="10.00">idLocal</text>
</g>
<!-- LOCALIZACAO_idLocal&#45;&#45;LOCALIZACAO -->
<g id="edge16" class="edge">
<title>LOCALIZACAO_idLocal&#45;&#45;LOCALIZACAO</title>
<path fill="none" stroke="black" d="M464.71,-171.92C484.14,-166.65 509.95,-159.56 532.68,-153 548.59,-148.41 566.03,-143.19 581.25,-138.58"/>
</g>
<!-- LOCALIZACAO_Pais -->
<g id="node22" class="node">
<title>LOCALIZACAO_Pais</title>
<ellipse fill="white" stroke="black" cx="433.62" cy="-126" rx="27" ry="18"/>
<text text-anchor="middle" x="433.62" y="-123.5" font-family="Courier,monospace" font-size="10.00">Pais</text>
</g>
<!-- LOCALIZACAO_Pais&#45;&#45;LOCALIZACAO -->
<g id="edge17" class="edge">
<title>LOCALIZACAO_Pais&#45;&#45;LOCALIZACAO</title>
<path fill="none" stroke="black" d="M460.7,-126C492,-126 544.86,-126 581.53,-126"/>
</g>
<!-- LOCALIZACAO_Distrito -->
<g id="node23" class="node">
<title>LOCALIZACAO_Distrito</title>
<ellipse fill="white" stroke="black" cx="433.62" cy="-72" rx="38.03" ry="18"/>
<text text-anchor="middle" x="433.62" y="-69.5" font-family="Courier,monospace" font-size="10.00">Distrito</text>
</g>
<!-- LOCALIZACAO_Distrito&#45;&#45;LOCALIZACAO -->
<g id="edge18" class="edge">
<title>LOCALIZACAO_Distrito&#45;&#45;LOCALIZACAO</title>
<path fill="none" stroke="black" d="M467.36,-80.8C486.45,-85.99 510.97,-92.74 532.68,-99 548.59,-103.59 566.03,-108.81 581.25,-113.42"/>
</g>
<!-- LOCALIZACAO_Concelho -->
<g id="node24" class="node">
<title>LOCALIZACAO_Concelho</title>
<ellipse fill="white" stroke="black" cx="433.62" cy="-18" rx="38.03" ry="18"/>
<text text-anchor="middle" x="433.62" y="-15.5" font-family="Courier,monospace" font-size="10.00">Concelho</text>
</g>
<!-- LOCALIZACAO_Concelho&#45;&#45;LOCALIZACAO -->
<g id="edge19" class="edge">
<title>LOCALIZACAO_Concelho&#45;&#45;LOCALIZACAO</title>
<path fill="none" stroke="black" d="M470.17,-23.63C489.5,-27.69 513.33,-34.38 532.68,-45 562.44,-61.34 590.38,-89.44 606.88,-107.87"/>
</g>
<!-- TEM_ADJUDICANTE&#45;&#45;ADJUDICANTE -->
<g id="edge21" class="edge">
<title>TEM_ADJUDICANTE&#45;&#45;ADJUDICANTE</title>
<path fill="none" stroke="black" d="M522.91,-664C543.43,-664 564.31,-664 581.59,-664"/>
<path fill="none" stroke="transparent" d="M522.91,-666C543.43,-666 564.31,-666 581.59,-666"/>
<path fill="none" stroke="black" d="M522.91,-668C543.43,-668 564.31,-668 581.59,-668"/>
<text text-anchor="middle" x="554.18" y="-669" font-family="Courier,monospace" font-size="10.00">1</text>
</g>
<!-- USA_CPV&#45;&#45;CPV -->
<g id="edge23" class="edge">
<title>USA_CPV&#45;&#45;CPV</title>
<path fill="none" stroke="black" d="M462.04,-548.57C481.68,-543.25 508.57,-535.87 532.13,-529.08 553.47,-522.92 577.6,-515.62 595.41,-510.17"/>
<path fill="none" stroke="transparent" d="M462.57,-550.5C482.21,-545.18 509.1,-537.8 532.68,-531 554.05,-524.84 578.18,-517.54 595.99,-512.08"/>
<path fill="none" stroke="black" d="M463.09,-552.43C482.74,-547.11 509.63,-539.73 533.24,-532.92 554.63,-526.75 578.76,-519.45 596.58,-514"/>
<text text-anchor="middle" x="554.18" y="-528" font-family="Courier,monospace" font-size="10.00">1</text>
</g>
<!-- TEM_ADJUDICATARIO&#45;&#45;ADJUDICATARIO -->
<g id="edge25" class="edge">
<title>TEM_ADJUDICATARIO&#45;&#45;ADJUDICATARIO</title>
<path fill="none" stroke="black" d="M474.81,-296.76C492.69,-301.63 514.04,-307.54 533.24,-313.08 547.13,-317.09 562.18,-321.57 575.91,-325.72"/>
<path fill="none" stroke="transparent" d="M474.28,-298.69C492.16,-303.56 513.51,-309.47 532.68,-315 546.56,-319 561.61,-323.49 575.33,-327.63"/>
<path fill="none" stroke="black" d="M473.76,-300.61C491.62,-305.49 512.98,-311.4 532.13,-316.92 545.99,-320.92 561.04,-325.4 574.75,-329.55"/>
<text text-anchor="middle" x="554.18" y="-325" font-family="Courier,monospace" font-size="10.00">N</text>
</g>
<!-- LOCAL_DE_EXECUCAO&#45;&#45;LOCALIZACAO -->
<g id="edge27" class="edge">
<title>LOCAL_DE_EXECUCAO&#45;&#45;LOCALIZACAO</title>
<path fill="none" stroke="black" d="M483.75,-223.17C499.69,-219.1 517.19,-213.26 531.72,-205.25 561.02,-189.25 588.96,-161.15 605.39,-142.8"/>
<path fill="none" stroke="transparent" d="M484.24,-225.1C500.32,-221 517.82,-215.16 532.68,-207 562.44,-190.66 590.38,-162.56 606.88,-144.13"/>
<path fill="none" stroke="black" d="M484.74,-227.04C500.95,-222.89 518.46,-217.06 533.65,-208.75 563.86,-192.07 591.8,-163.97 608.37,-145.47"/>
<text text-anchor="middle" x="554.18" y="-197" font-family="Courier,monospace" font-size="10.00">N</text>
</g>
</g>
</svg>
